<svg id="Group_3" data-name="Group 3" xmlns="http://www.w3.org/2000/svg" xmlns:xlink="http://www.w3.org/1999/xlink" width="461.406" height="448.519" viewBox="0 0 461.406 448.519">
  <defs>
    <clipPath id="clip-path">
      <rect id="Rectangle_1" data-name="Rectangle 1" width="461.406" height="448.519" fill="none" stroke="#fff" stroke-width="1"/>
    </clipPath>
  </defs>
  <path id="Path_1" data-name="Path 1" d="M.5,112.552v61.859l117.533,71.757-35.88,20.413L.5,217.713V337.72L179.273,447.829,363.614,340.194V276.479L253.5,205.341l29.075-19.794,81.035,49.487V112.552L182.056.588Z" transform="translate(0.046 0.054)" stroke="#fff" stroke-width="1"/>
  <g id="Group_2" data-name="Group 2">
    <g id="Group_1" data-name="Group 1" clip-path="url(#clip-path)">
      <path id="Path_2" data-name="Path 2" d="M.5,112.552v61.859l117.533,71.757L82.155,266.581.5,217.713V337.72L179.274,447.83,363.613,340.194V276.479L253.5,205.341l29.074-19.794,81.035,49.487V112.552L182.057.587Z" transform="translate(0.046 0.054)" fill="none" stroke="#fff" stroke-miterlimit="10" stroke-width="1"/>
    </g>
  </g>
  <path id="Path_3" data-name="Path 3" d="M47.206,118.521,31.123,129.038v21.032l114.44,70.664,100.211-58.91L149.892,99.345l29.374-18.558,149.4,88.459V131.512l-149.4-92.79-96.8,58.148,97.428,62.477-31.858,19.177Z" transform="translate(2.836 3.529)" fill="#8a9dff" stroke="#fff" stroke-width="1"/>
  <path id="Path_4" data-name="Path 4" d="M47.206,118.521,31.123,129.038v21.032l114.44,70.664,100.211-58.91L149.892,99.345l29.374-18.558,149.4,88.459V131.512l-149.4-92.79-96.8,58.148,97.428,62.477-31.858,19.177Z" transform="translate(2.836 3.529)" fill="none" stroke="#fff" stroke-miterlimit="10" stroke-width="1"/>
  <path id="Path_5" data-name="Path 5" d="M213.607,205.532l115.058,70.376V298.8L314.437,309.93l-100.83-61.859-33.714,18.558,98.666,62.478-98.666,60.622L31.123,297.63V259.824l145.369,88.458,34.641-17.938-95.263-62.478Z" transform="translate(2.836 18.73)" fill="#8a9dff" stroke="#fff" stroke-width="1"/>
  <path id="Path_6" data-name="Path 6" d="M213.607,205.532l115.058,70.376V298.8L314.437,309.93l-100.83-61.859-33.714,18.558,98.666,62.478-98.666,60.622L31.123,297.63V259.824l145.369,88.458,34.641-17.938-95.263-62.478Z" transform="translate(2.836 18.73)" fill="none" stroke="#fff" stroke-miterlimit="10" stroke-width="1"/>
</svg>
