<svg id="Group_12" data-name="Group 12" xmlns="http://www.w3.org/2000/svg" xmlns:xlink="http://www.w3.org/1999/xlink" width="130.557" height="126.91" viewBox="0 0 130.557 126.91">
  <defs>
    <clipPath id="clip-path">
      <rect id="Rectangle_14" data-name="Rectangle 14" width="130.557" height="126.91" fill="none"/>
    </clipPath>
  </defs>
  <path id="Path_10" data-name="Path 10" d="M.546,32.322v17.5L33.8,70.13,23.65,75.906.546,62.078V96.035l50.584,31.156,52.16-30.456V78.706L72.134,58.577l8.227-5.6,22.929,14V32.322L51.918.642Z" transform="translate(-0.392 -0.46)" fill="#fff"/>
  <g id="Group_9" data-name="Group 9">
    <g id="Group_8" data-name="Group 8" clip-path="url(#clip-path)">
      <path id="Path_11" data-name="Path 11" d="M.546,32.323v17.5L33.8,70.13,23.65,75.906.546,62.079V96.035l50.585,31.156,52.16-30.456V78.707L72.133,58.578l8.227-5.6,22.929,14V32.323L51.918.642Z" transform="translate(-0.392 -0.46)" fill="none" stroke="#fff" stroke-width="1"/>
    </g>
  </g>
  <g id="Group_11" data-name="Group 11">
    <g id="Group_10" data-name="Group 10" clip-path="url(#clip-path)">
      <path id="Path_12" data-name="Path 12" d="M.546,32.322v17.5L33.8,70.129,23.651,75.905.546,62.078V96.034L51.131,127.19l52.16-30.456V78.706L72.133,58.577l8.227-5.6,22.929,14V32.322L51.918.641Z" transform="translate(-0.392 -0.46)" fill="none" stroke="#fff" stroke-miterlimit="10" stroke-width="1"/>
    </g>
  </g>
  <path id="Path_13" data-name="Path 13" d="M38.51,64.831l-4.551,2.976v5.951L66.34,93.752,94.7,77.083,67.565,59.4l8.312-5.251,42.273,25.03V68.506L75.877,42.251,48.487,58.7,76.054,76.382,67.04,81.809Z" transform="translate(-24.35 -30.296)" fill="#009245"/>
  <path id="Path_14" data-name="Path 14" d="M38.51,64.831l-4.551,2.976v5.951L66.34,93.752,94.7,77.083,67.565,59.4l8.312-5.251,42.273,25.03V68.506L75.877,42.251,48.487,58.7,76.054,76.382,67.04,81.809Z" transform="translate(-24.35 -30.296)" fill="none" stroke="#fff" stroke-width="1"/>
  <path id="Path_15" data-name="Path 15" d="M38.51,64.831l-4.551,2.976v5.951L66.34,93.752,94.7,77.083,67.565,59.4l8.312-5.251,42.273,25.03V68.506L75.877,42.251,48.487,58.7,76.054,76.382,67.04,81.809Z" transform="translate(-24.35 -30.296)" fill="none" stroke="#fff" stroke-miterlimit="10" stroke-width="1"/>
  <path id="Path_16" data-name="Path 16" d="M85.594,224.262l32.556,19.913v6.477l-4.026,3.149-28.53-17.5-9.54,5.251,27.918,17.678L76.054,276.381l-42.1-26.06v-10.7l41.133,25.03,9.8-5.076L57.939,241.9Z" transform="translate(-24.35 -160.806)" fill="#009245"/>
  <path id="Path_17" data-name="Path 17" d="M85.594,224.262l32.556,19.913v6.477l-4.026,3.149-28.53-17.5-9.54,5.251,27.918,17.678L76.054,276.381l-42.1-26.06v-10.7l41.133,25.03,9.8-5.076L57.939,241.9Z" transform="translate(-24.35 -160.806)" fill="none" stroke="#fff" stroke-width="1"/>
  <path id="Path_18" data-name="Path 18" d="M85.594,224.262l32.556,19.913v6.477l-4.026,3.149-28.53-17.5-9.54,5.251,27.918,17.678L76.054,276.381l-42.1-26.06v-10.7l41.133,25.03,9.8-5.076L57.939,241.9Z" transform="translate(-24.35 -160.806)" fill="none" stroke="#fff" stroke-miterlimit="10" stroke-width="1"/>
</svg>
