<?xml version="1.0" encoding="UTF-8"?>
<svg id="Layer_1" data-name="Layer 1" xmlns="http://www.w3.org/2000/svg" viewBox="0 0 181.47 71.16">
  <defs>
    <style>
      .cls-1 {
        fill: none;
      }

      .cls-2 {
        fill: #1c5734;
      }

      .cls-3 {
        fill: #fff;
      }
    </style>
  </defs>
  <g>
    <path class="cls-3" d="M121.02,54.65c0-.74,1.06-1.56,4.63-3.36,0-.71-.05-1.27-.08-1.83-.01-.16-.03-.33-.03-.5-2.49,1.7-6.36,3.68-9.58,4.72l-.18-.53c3.13-1.02,7.3-3.19,9.73-4.85,0-.19-.01-.39-.01-.59,0-1.03.89-1.94,1.88-1.94.48,0,.7.25.7.61,0,.5-.76,1.29-1.98,2.18.02.29.04.57.06.85.03.48.07.98.08,1.58,1.65-.81,3.76-1.81,6.46-3.07l.25.5c-2.86,1.34-5.05,2.38-6.71,3.21-.1,2.3-1.69,3.85-3.98,3.85-.74,0-1.23-.33-1.23-.84ZM122.26,54.93c1.86,0,3.16-1.17,3.37-2.99-3.05,1.55-4.02,2.27-4.02,2.7,0,.16.23.28.65.28ZM126.08,47.91c.88-.65,1.41-1.18,1.41-1.48,0-.04-.04-.08-.12-.08-.67,0-1.3.67-1.3,1.38v.19Z"/>
    <path class="cls-3" d="M131.97,49.15c0-.89,1.08-1.7,2.23-1.69.55,0,.88.12,1.21.32l-.32.46c-.26-.16-.47-.23-.88-.23-.83,0-1.65.57-1.65,1.14,0,.11.06.16.23.17.91.04,3.47-1.17,4.2-1.94.01-.01.02-.03.03-.04.03-.03.06-.07.08-.1l.48.31c-.03.05-.08.1-.12.16-.98,1.14-1.68,2.45-1.67,3.12,0,.35.17.52.5.52,1.25,0,4-1.43,6.51-3.37l.35.44c-2.01,1.55-5.2,3.49-6.87,3.49-.65,0-1.08-.42-1.08-1.08,0-.51.28-1.26.77-2.05-1.12.62-2.5,1.14-3.21,1.11-.46-.02-.79-.3-.79-.72Z"/>
    <path class="cls-3" d="M141.85,51.65c0-3.3,3.47-9.17,8.05-13.62,3.38-3.29,6.67-5.12,9.28-5.12,1.32,0,2.19.7,2.19,1.76,0,1.81-2.1,4.1-6.24,6.91-4.03,2.73-9.08,5.31-11.88,6.76-.52,1.26-.81,2.39-.81,3.3,0,.79.3,1.21.84,1.21,1.75,0,5.02-1.82,8.93-4.9l.36.44c-4.03,3.17-7.37,5.01-9.29,5.01-.88,0-1.42-.68-1.42-1.77ZM143.6,47.54c2.88-1.5,7.47-3.89,11.2-6.42,3.96-2.68,5.98-4.87,5.98-6.45,0-.74-.6-1.21-1.61-1.21-2.43,0-5.58,1.77-8.88,4.96-2.89,2.8-5.34,6.2-6.7,9.11Z"/>
    <path class="cls-3" d="M150.42,51.22c0-.79,1.27-3.1,3.19-4.57l.35.44c-1.81,1.39-2.96,3.48-2.96,4.13,0,.15.04.21.17.21.62,0,2.2-1.23,3.1-2.38.06-.08.12-.16.18-.24v-.02c.06-.06.12-.12.17-.18l.43.39c-.48.5-.85,1.3-.85,1.87,0,.19.05.25.18.25.65,0,2.1-1.19,2.29-2.69-.34-.21-.55-.61-.34-.78.21-.17.57.02.81.4.83.85,3.34,1.25,5.27-.08l.32.44c-1.9,1.31-4.33,1.14-5.55.38-.35,1.4-1.72,2.88-2.8,2.88-.46,0-.76-.32-.76-.81,0-.11.01-.23.03-.35-.82.75-1.81,1.46-2.48,1.46-.45,0-.75-.3-.75-.76Z"/>
    <path class="cls-3" d="M161.71,49.15c0-.89,1.08-1.7,2.23-1.69.55,0,.88.12,1.21.32l-.32.46c-.26-.16-.47-.23-.88-.23-.83,0-1.65.57-1.65,1.14,0,.11.06.16.23.17.91.04,3.47-1.17,4.2-1.94.01-.01.02-.03.03-.04.03-.03.06-.07.08-.1l.48.31c-.03.05-.08.1-.12.16-.98,1.14-1.68,2.45-1.67,3.12,0,.35.17.52.5.52,1.25,0,4-1.43,6.51-3.37l.35.44c-2.01,1.55-5.2,3.49-6.87,3.49-.65,0-1.08-.42-1.08-1.08,0-.51.28-1.26.77-2.05-1.12.62-2.5,1.14-3.21,1.11-.46-.02-.79-.3-.79-.72Z"/>
    <path class="cls-3" d="M170.13,51.48c.78-1.3,1.16-1.85,3.15-4.49.32-.43.61-.77.92-.77.24,0,.41.16.41.4,0,.39-.67,1.01-1.66,1.75-.59.79-.99,1.34-1.31,1.79,1.73-1.43,2.64-1.87,3.28-1.87.44,0,.72.27.72.7,0,.24-.08.48-.15.7-.06.21-.13.39-.15.62-.03.23.11.36.39.36.52,0,1.61-.45,3.14-1.28.36-.19.61.32.28.49-1.62.88-2.79,1.34-3.42,1.34s-1.03-.41-.97-.97c.03-.28.11-.54.18-.74.09-.28.12-.4.12-.52,0-.14-.11-.15-.22-.15-.57,0-1.68.67-4.21,2.91-.17.3-.67,0-.5-.28Z"/>
  </g>
  <g>
    <path class="cls-2" d="M38.6,9.89c-.11.04-.35.15-.71.33-.37.17-.7.33-1,.46v-2.65c0-.37-.12-.68-.37-.92s-.54-.36-.9-.36-.65.12-.9.36-.36.55-.36.92v2.19c0,.33.05.68.16,1.05.11.37.23.7.36.98.13.37.29.72.49,1.05l2.82,5.31c.28.52.5,1.01.64,1.46.14.45.25.82.31,1.13.07.39.1.74.1,1.05v2.92c0,.81-.28,1.5-.85,2.06s-1.26.85-2.09.85h-1.47c-.78-.04-1.45-.34-1.99-.9-.54-.56-.83-1.23-.85-2.01v-2.36c0-.37.07-.66.21-.85.14-.2.29-.34.44-.43.11-.04.34-.15.71-.31.37-.16.7-.31,1-.44v4c0,.35.12.64.36.88s.54.36.9.36.65-.12.9-.36.37-.54.37-.92v-2.62c0-.33-.05-.68-.16-1.05-.11-.37-.22-.71-.33-1.01-.15-.35-.33-.7-.52-1.05l-2.82-5.27c-.28-.52-.5-1.01-.64-1.46-.14-.45-.25-.84-.31-1.16-.07-.37-.1-.71-.1-1.02v-2.36c0-.39.08-.77.23-1.15.15-.37.36-.7.62-.98.26-.28.57-.51.93-.67.36-.16.74-.25,1.16-.25h1.47c.39,0,.76.09,1.11.26.35.18.65.4.9.69.25.28.45.61.6.97.15.36.23.74.23,1.13v.88c0,.37-.07.66-.21.85-.14.2-.29.34-.44.43Z"/>
    <path class="cls-2" d="M58.27,4.88c.37,0,.62.1.75.31.13.21.2.41.2.61v22.04h-2.36v-9.99c-.04-.35-.23-.52-.56-.52h-2.55v10.51h-2.36V5.8c0-.2.07-.4.2-.61.13-.21.38-.31.75-.31h1.41v9.27c0,.33.07.55.2.66s.34.16.62.16h2.29V4.88h1.41Z"/>
    <path class="cls-2" d="M78.94,27.84h-2.59l-2.06-15.79-2.06,15.79h-2.59l3.47-22.92h1.28c.5,0,.82.13.97.39.14.26.23.55.28.85l3.31,21.68Z"/>
    <path class="cls-2" d="M97.05,25.15c0,.79-.28,1.44-.83,1.96-.56.52-1.22.8-1.98.82v.03h-1.8c-.81,0-1.5-.27-2.06-.8-.57-.54-.85-1.21-.85-2.01V5.57c.02-.17.1-.33.23-.46.13-.13.28-.2.46-.2h1.67v19.81c0,.35.11.64.34.88s.52.36.87.36h.36c.35,0,.64-.12.88-.36s.36-.54.36-.88V4.91h2.36v20.24Z"/>
    <path class="cls-2" d="M114.11,19.45c0-.57-.13-.96-.38-1.16-.25-.21-.53-.31-.83-.31h-1.24v9.86h-2.36V4.91h4.29c.79,0,1.46.28,2.03.83.57.56.85,1.24.85,2.05v7.07c0,.35-.02.65-.07.92-.04.26-.12.5-.25.7-.12.21-.3.34-.54.41.24.11.41.28.52.52s.2.48.26.72c.04.28.07.59.07.92v8.78h-2.36v-8.38ZM112.9,15.75c.31,0,.58-.09.83-.26.25-.17.38-.52.38-1.05v-6.16c0-.44-.13-.74-.38-.92-.25-.17-.53-.26-.83-.26h-1.24v8.65h1.24Z"/>
    <path class="cls-2" d="M136.58,27.84h-2.59l-2.06-15.79-2.06,15.79h-2.59l3.47-22.92h1.28c.5,0,.82.13.97.39.14.26.23.55.28.85l3.31,21.68Z"/>
    <path class="cls-2" d="M149.61,27.84c-.17,0-.33-.07-.46-.2s-.21-.29-.23-.49v-8.84l-2.82-13.39h1.74s.17.04.38.11c.21.08.33.3.38.67l1.51,8.68,1.51-8.68c.04-.37.17-.59.38-.67.21-.08.33-.11.38-.11h1.74l-2.82,13.39v9.53h-1.67Z"/>
    <path class="cls-2" d="M172.93,27.84h-2.59l-2.06-15.79-2.06,15.79h-2.59l3.47-22.92h1.28c.5,0,.82.13.97.39.14.26.23.55.28.85l3.31,21.68Z"/>
  </g>
  <rect class="cls-1" y="45.54" width="131.43" height="0"/>
</svg>